<?xml version="1.0" encoding="UTF-8" standalone="no"?>
<svg width="15px" height="16px" viewBox="0 0 15 16" version="1.1" xmlns="http://www.w3.org/2000/svg" xmlns:xlink="http://www.w3.org/1999/xlink" xmlns:sketch="http://www.bohemiancoding.com/sketch/ns">
    <!-- Generator: Sketch 3.3.3 (12081) - http://www.bohemiancoding.com/sketch -->
    <title>i-plus--primary-contrast</title>
    <desc>Created with Sketch.</desc>
    <defs></defs>
    <g id="Page-1" stroke="none" stroke-width="1" fill="none" fill-rule="evenodd" sketch:type="MSPage">
        <g id="Simple-Copy" sketch:type="MSArtboardGroup" transform="translate(-338.000000, -669.000000)" fill="#36BDBB">
            <path d="M351.640113,678.338462 L347.107156,678.338462 L347.107156,682.8 C347.107156,683.539277 346.49838,684.138462 345.747269,684.138462 C344.996158,684.138462 344.387382,683.539277 344.387382,682.8 L344.387382,678.338462 L339.854426,678.338462 C339.103315,678.338462 338.494539,677.739277 338.494539,677 C338.494539,676.260723 339.103315,675.661538 339.854426,675.661538 L344.387382,675.661538 L344.387382,671.2 C344.387382,670.460723 344.996158,669.861538 345.747269,669.861538 C346.49838,669.861538 347.107156,670.460723 347.107156,671.2 L347.107156,675.661538 L351.640113,675.661538 C352.391224,675.661538 353,676.260723 353,677 C353,677.739277 352.391224,678.338462 351.640113,678.338462 L351.640113,678.338462 Z" id="i-plus--primary-contrast" sketch:type="MSShapeGroup"></path>
        </g>
    </g>
</svg>