<?xml version="1.0" encoding="UTF-8" standalone="no"?>
<svg width="15px" height="16px" viewBox="0 0 15 16" version="1.1" xmlns="http://www.w3.org/2000/svg" xmlns:xlink="http://www.w3.org/1999/xlink" xmlns:sketch="http://www.bohemiancoding.com/sketch/ns">
    <!-- Generator: Sketch 3.3.3 (12081) - http://www.bohemiancoding.com/sketch -->
    <title>i-plus--secondary-contrast</title>
    <desc>Created with Sketch.</desc>
    <defs></defs>
    <g id="Page-1" stroke="none" stroke-width="1" fill="none" fill-rule="evenodd" sketch:type="MSPage">
        <g id="Simple-Copy" sketch:type="MSArtboardGroup" transform="translate(-408.000000, -669.000000)" fill="#F77B42">
            <path d="M421.640113,678.338462 L417.107156,678.338462 L417.107156,682.8 C417.107156,683.539277 416.49838,684.138462 415.747269,684.138462 C414.996158,684.138462 414.387382,683.539277 414.387382,682.8 L414.387382,678.338462 L409.854426,678.338462 C409.103315,678.338462 408.494539,677.739277 408.494539,677 C408.494539,676.260723 409.103315,675.661538 409.854426,675.661538 L414.387382,675.661538 L414.387382,671.2 C414.387382,670.460723 414.996158,669.861538 415.747269,669.861538 C416.49838,669.861538 417.107156,670.460723 417.107156,671.2 L417.107156,675.661538 L421.640113,675.661538 C422.391224,675.661538 423,676.260723 423,677 C423,677.739277 422.391224,678.338462 421.640113,678.338462 L421.640113,678.338462 Z" id="i-plus--secondary-contrast" sketch:type="MSShapeGroup"></path>
        </g>
    </g>
</svg>